####
#
# OBJ File Generated by Meshlab
#
####
# Object boxN.obj
#
# Vertices: 24
# Faces: 12
#
####
mtllib ./boxN.obj.mtl

vn 0.000000 1.570796 0.000000
v 0.500000 0.500000 0.500000
vn -1.570796 0.000000 0.000000
v -0.500000 0.500000 0.500000
vn 1.570796 0.000000 0.000000
v 0.500000 -0.500000 0.500000
vn 0.000000 -1.570796 0.000000
v -0.500000 -0.500000 0.500000
vn 0.000000 1.570796 0.000000
v 0.500000 0.500000 -0.500000
vn -1.570796 0.000000 0.000000
v -0.500000 0.500000 -0.500000
vn 0.000000 0.000000 -1.570796
v 0.500000 -0.500000 -0.500000
vn -1.570796 0.000000 0.000000
v -0.500000 -0.500000 -0.500000
vn 1.570796 0.000000 0.000000
v 0.500000 0.500000 0.500000
vn 0.000000 0.000000 1.570796
v 0.500000 0.500000 0.500000
vn 0.000000 1.570796 0.000000
v -0.500000 0.500000 0.500000
vn 0.000000 0.000000 1.570796
v -0.500000 0.500000 0.500000
vn 0.000000 -1.570796 0.000000
v 0.500000 -0.500000 0.500000
vn 0.000000 0.000000 1.570796
v 0.500000 -0.500000 0.500000
vn -1.570796 0.000000 0.000000
v -0.500000 -0.500000 0.500000
vn 0.000000 0.000000 1.570796
v -0.500000 -0.500000 0.500000
vn 0.000000 0.000000 -1.570796
v 0.500000 0.500000 -0.500000
vn 1.570796 0.000000 0.000000
v 0.500000 0.500000 -0.500000
vn 0.000000 -1.570796 0.000000
v 0.500000 -0.500000 -0.500000
vn 1.570796 0.000000 0.000000
v 0.500000 -0.500000 -0.500000
vn 0.000000 0.000000 -1.570796
v -0.500000 0.500000 -0.500000
vn 0.000000 1.570796 0.000000
v -0.500000 0.500000 -0.500000
vn 0.000000 -1.570796 0.000000
v -0.500000 -0.500000 -0.500000
vn 0.000000 0.000000 -1.570796
v -0.500000 -0.500000 -0.500000
# 24 vertices, 0 vertices normals


usemtl material_0
f 10//10 12//12 14//14
f 16//16 14//14 12//12
f 9//9 3//3 18//18
f 20//20 18//18 3//3
f 1//1 5//5 11//11
f 22//22 11//11 5//5
f 24//24 21//21 7//7
f 17//17 7//7 21//21
f 23//23 19//19 4//4
f 13//13 4//4 19//19
f 8//8 15//15 6//6
f 2//2 6//6 15//15
# 12 faces, 0 coords texture

# End of File