####
#
# OBJ File Generated by Meshlab
#
####
# Object dodecahedronN.obj
#
# Vertices: 180
# Faces: 60
#
####
mtllib ./dodecahedronN.obj.mtl

vn 0.801717 0.495490 0.000003
v 4.236070 0.000000 1.618030
vn 0.495491 0.000003 0.801719
v 2.618030 2.618030 2.618030
vn 0.495490 0.000000 0.801721
v 0.000000 1.618030 4.236070
vn 0.495490 -0.000003 0.801717
v 0.000000 -1.618030 4.236070
vn 0.495492 -0.000003 0.801720
v 2.618030 -2.618030 2.618030
vn 0.660656 -0.000003 1.068958
v 1.894430 0.000000 3.065250
vn -0.801719 0.495491 0.000003
v -2.618030 2.618030 2.618030
vn -0.495491 -0.000003 0.801717
v -4.236070 0.000000 1.618030
vn -0.495491 -0.000003 0.801719
v -2.618030 -2.618030 2.618030
vn -0.660655 0.000004 1.068959
v -1.894430 0.000000 3.065250
vn 0.000000 0.801721 0.495490
v 1.618030 4.236070 0.000000
vn -0.000003 0.801717 0.495490
v -1.618030 4.236070 0.000000
vn -0.000004 1.068959 0.660655
v 0.000000 3.065250 1.894430
vn 0.000000 -0.801721 0.495490
v -1.618030 -4.236070 0.000000
vn 0.000003 -0.801717 0.495490
v 1.618030 -4.236070 0.000000
vn -0.000003 -1.068958 0.660656
v 0.000000 -3.065250 1.894430
vn 0.801717 0.495490 -0.000003
v 4.236070 0.000000 -1.618030
vn 0.801720 0.495492 -0.000003
v 2.618030 2.618030 -2.618030
vn 1.068958 0.660656 0.000003
v 3.065250 1.894430 0.000000
vn -0.801719 0.495491 -0.000003
v -2.618030 2.618030 -2.618030
vn -0.801721 0.495490 0.000000
v -4.236070 0.000000 -1.618030
vn -1.068959 0.660655 0.000004
v -3.065250 1.894430 0.000000
vn -0.801720 -0.495492 -0.000003
v -2.618030 -2.618030 -2.618030
vn -1.068958 -0.660656 0.000003
v -3.065250 -1.894430 0.000000
vn 0.801719 -0.495491 -0.000003
v 2.618030 -2.618030 -2.618030
vn 1.068957 -0.660651 0.000000
v 3.065250 -1.894430 0.000000
vn -0.000003 0.801717 -0.495491
v 0.000000 1.618030 -4.236070
vn -0.000004 1.068960 -0.660655
v 0.000000 3.065250 -1.894430
vn 0.000003 -0.801717 -0.495491
v 0.000000 -1.618030 -4.236070
vn -0.000004 -1.068959 -0.660655
v 0.000000 -3.065250 -1.894430
vn 0.660655 0.000004 -1.068959
v 1.894430 0.000000 -3.065250
vn -0.660655 -0.000004 -1.068959
v -1.894430 0.000000 -3.065250
vn 0.660655 -0.000004 1.068959
v 1.894430 0.000000 3.065250
vn 0.660651 0.000000 1.068957
v 1.894430 0.000000 3.065250
vn 0.660655 0.000004 1.068959
v 1.894430 0.000000 3.065250
vn 0.660656 0.000003 1.068958
v 1.894430 0.000000 3.065250
vn 0.801721 0.495490 0.000000
v 4.236070 0.000000 1.618030
vn 0.801721 -0.495490 0.000000
v 4.236070 0.000000 1.618030
vn 0.801717 -0.495490 0.000003
v 4.236070 0.000000 1.618030
vn 0.495491 -0.000003 0.801717
v 4.236070 0.000000 1.618030
vn 0.495491 0.000003 0.801717
v 4.236070 0.000000 1.618030
vn 0.000003 0.801720 0.495492
v 2.618030 2.618030 2.618030
vn 0.000003 0.801719 0.495491
v 2.618030 2.618030 2.618030
vn 0.801720 0.495492 0.000003
v 2.618030 2.618030 2.618030
vn 0.801719 0.495491 0.000003
v 2.618030 2.618030 2.618030
vn 0.495492 0.000003 0.801720
v 2.618030 2.618030 2.618030
vn -0.495490 0.000000 0.801721
v 0.000000 1.618030 4.236070
vn -0.495490 0.000003 0.801717
v 0.000000 1.618030 4.236070
vn -0.000003 0.801717 0.495490
v 0.000000 1.618030 4.236070
vn 0.000003 0.801717 0.495491
v 0.000000 1.618030 4.236070
vn 0.495490 0.000003 0.801717
v 0.000000 1.618030 4.236070
vn 0.000003 -0.801717 0.495490
v 0.000000 -1.618030 4.236070
vn -0.000003 -0.801717 0.495491
v 0.000000 -1.618030 4.236070
vn -0.495490 -0.000003 0.801717
v 0.000000 -1.618030 4.236070
vn -0.495490 0.000000 0.801721
v 0.000000 -1.618030 4.236070
vn 0.495490 0.000000 0.801721
v 0.000000 -1.618030 4.236070
vn 0.801719 -0.495491 0.000003
v 2.618030 -2.618030 2.618030
vn 0.801720 -0.495492 0.000003
v 2.618030 -2.618030 2.618030
vn 0.000003 -0.801719 0.495491
v 2.618030 -2.618030 2.618030
vn 0.000003 -0.801720 0.495492
v 2.618030 -2.618030 2.618030
vn 0.495491 -0.000003 0.801719
v 2.618030 -2.618030 2.618030
vn -0.660651 0.000000 1.068957
v -1.894430 0.000000 3.065250
vn -0.660655 -0.000004 1.068959
v -1.894430 0.000000 3.065250
vn -0.660656 -0.000003 1.068958
v -1.894430 0.000000 3.065250
vn -0.660656 0.000003 1.068958
v -1.894430 0.000000 3.065250
vn -0.801720 0.495492 0.000003
v -2.618030 2.618030 2.618030
vn -0.000003 0.801719 0.495491
v -2.618030 2.618030 2.618030
vn -0.000003 0.801720 0.495492
v -2.618030 2.618030 2.618030
vn -0.495491 0.000003 0.801719
v -2.618030 2.618030 2.618030
vn -0.495492 0.000003 0.801720
v -2.618030 2.618030 2.618030
vn -0.801717 -0.495490 0.000003
v -4.236070 0.000000 1.618030
vn -0.801721 -0.495490 0.000000
v -4.236070 0.000000 1.618030
vn -0.801721 0.495490 0.000000
v -4.236070 0.000000 1.618030
vn -0.801717 0.495490 0.000003
v -4.236070 0.000000 1.618030
vn -0.495491 0.000003 0.801717
v -4.236070 0.000000 1.618030
vn -0.000003 -0.801720 0.495492
v -2.618030 -2.618030 2.618030
vn -0.000003 -0.801719 0.495491
v -2.618030 -2.618030 2.618030
vn -0.801720 -0.495492 0.000003
v -2.618030 -2.618030 2.618030
vn -0.801719 -0.495491 0.000003
v -2.618030 -2.618030 2.618030
vn -0.495492 -0.000003 0.801720
v -2.618030 -2.618030 2.618030
vn 0.000000 1.068957 0.660651
v 0.000000 3.065250 1.894430
vn 0.000004 1.068960 0.660655
v 0.000000 3.065250 1.894430
vn 0.000003 1.068958 0.660656
v 0.000000 3.065250 1.894430
vn -0.000003 1.068958 0.660656
v 0.000000 3.065250 1.894430
vn 0.000000 0.801721 -0.495490
v 1.618030 4.236070 0.000000
vn 0.000003 0.801717 -0.495490
v 1.618030 4.236070 0.000000
vn 0.801717 0.495491 -0.000003
v 1.618030 4.236070 0.000000
vn 0.801717 0.495491 0.000003
v 1.618030 4.236070 0.000000
vn 0.000003 0.801717 0.495490
v 1.618030 4.236070 0.000000
vn -0.801717 0.495491 0.000003
v -1.618030 4.236070 0.000000
vn -0.801717 0.495491 -0.000003
v -1.618030 4.236070 0.000000
vn -0.000003 0.801717 -0.495490
v -1.618030 4.236070 0.000000
vn 0.000000 0.801721 -0.495490
v -1.618030 4.236070 0.000000
vn 0.000000 0.801721 0.495490
v -1.618030 4.236070 0.000000
vn 0.000003 -1.068958 0.660656
v 0.000000 -3.065250 1.894430
vn 0.000004 -1.068959 0.660655
v 0.000000 -3.065250 1.894430
vn 0.000000 -1.068957 0.660651
v 0.000000 -3.065250 1.894430
vn -0.000004 -1.068960 0.660655
v 0.000000 -3.065250 1.894430
vn 0.000000 -0.801721 -0.495490
v -1.618030 -4.236070 0.000000
vn -0.000003 -0.801717 -0.495490
v -1.618030 -4.236070 0.000000
vn -0.801717 -0.495491 -0.000003
v -1.618030 -4.236070 0.000000
vn -0.801717 -0.495491 0.000003
v -1.618030 -4.236070 0.000000
vn -0.000003 -0.801717 0.495490
v -1.618030 -4.236070 0.000000
vn 0.801717 -0.495491 0.000003
v 1.618030 -4.236070 0.000000
vn 0.801717 -0.495491 -0.000003
v 1.618030 -4.236070 0.000000
vn 0.000003 -0.801717 -0.495490
v 1.618030 -4.236070 0.000000
vn 0.000000 -0.801721 -0.495490
v 1.618030 -4.236070 0.000000
vn 0.000000 -0.801721 0.495490
v 1.618030 -4.236070 0.000000
vn 1.068958 0.660656 -0.000003
v 3.065250 1.894430 0.000000
vn 1.068959 0.660655 -0.000004
v 3.065250 1.894430 0.000000
vn 1.068957 0.660651 0.000000
v 3.065250 1.894430 0.000000
vn 1.068960 0.660655 0.000004
v 3.065250 1.894430 0.000000
vn 0.495491 0.000003 -0.801717
v 4.236070 0.000000 -1.618030
vn 0.495491 -0.000003 -0.801717
v 4.236070 0.000000 -1.618030
vn 0.801717 -0.495490 -0.000003
v 4.236070 0.000000 -1.618030
vn 0.801721 -0.495490 0.000000
v 4.236070 0.000000 -1.618030
vn 0.801721 0.495490 0.000000
v 4.236070 0.000000 -1.618030
vn 0.000003 0.801719 -0.495491
v 2.618030 2.618030 -2.618030
vn 0.000003 0.801720 -0.495492
v 2.618030 2.618030 -2.618030
vn 0.495491 0.000003 -0.801719
v 2.618030 2.618030 -2.618030
vn 0.495492 0.000003 -0.801720
v 2.618030 2.618030 -2.618030
vn 0.801719 0.495491 -0.000003
v 2.618030 2.618030 -2.618030
vn -1.068957 0.660651 0.000000
v -3.065250 1.894430 0.000000
vn -1.068960 0.660655 -0.000004
v -3.065250 1.894430 0.000000
vn -1.068958 0.660656 -0.000003
v -3.065250 1.894430 0.000000
vn -1.068958 0.660656 0.000003
v -3.065250 1.894430 0.000000
vn -0.495492 0.000003 -0.801720
v -2.618030 2.618030 -2.618030
vn -0.495491 0.000003 -0.801719
v -2.618030 2.618030 -2.618030
vn -0.000003 0.801720 -0.495492
v -2.618030 2.618030 -2.618030
vn -0.000003 0.801719 -0.495491
v -2.618030 2.618030 -2.618030
vn -0.801720 0.495492 -0.000003
v -2.618030 2.618030 -2.618030
vn -0.801721 -0.495490 0.000000
v -4.236070 0.000000 -1.618030
vn -0.801717 -0.495490 -0.000003
v -4.236070 0.000000 -1.618030
vn -0.495491 -0.000003 -0.801717
v -4.236070 0.000000 -1.618030
vn -0.495491 0.000003 -0.801717
v -4.236070 0.000000 -1.618030
vn -0.801717 0.495490 -0.000003
v -4.236070 0.000000 -1.618030
vn -1.068958 -0.660656 -0.000003
v -3.065250 -1.894430 0.000000
vn -1.068959 -0.660655 -0.000004
v -3.065250 -1.894430 0.000000
vn -1.068957 -0.660651 0.000000
v -3.065250 -1.894430 0.000000
vn -1.068960 -0.660655 0.000004
v -3.065250 -1.894430 0.000000
vn -0.000003 -0.801719 -0.495491
v -2.618030 -2.618030 -2.618030
vn -0.000003 -0.801720 -0.495492
v -2.618030 -2.618030 -2.618030
vn -0.495491 -0.000003 -0.801719
v -2.618030 -2.618030 -2.618030
vn -0.495492 -0.000003 -0.801720
v -2.618030 -2.618030 -2.618030
vn -0.801719 -0.495491 -0.000003
v -2.618030 -2.618030 -2.618030
vn 1.068960 -0.660655 -0.000004
v 3.065250 -1.894430 0.000000
vn 1.068958 -0.660656 -0.000003
v 3.065250 -1.894430 0.000000
vn 1.068958 -0.660656 0.000003
v 3.065250 -1.894430 0.000000
vn 1.068959 -0.660655 0.000004
v 3.065250 -1.894430 0.000000
vn 0.495492 -0.000003 -0.801720
v 2.618030 -2.618030 -2.618030
vn 0.495491 -0.000003 -0.801719
v 2.618030 -2.618030 -2.618030
vn 0.000003 -0.801720 -0.495492
v 2.618030 -2.618030 -2.618030
vn 0.000003 -0.801719 -0.495491
v 2.618030 -2.618030 -2.618030
vn 0.801720 -0.495492 -0.000003
v 2.618030 -2.618030 -2.618030
vn -0.000003 1.068958 -0.660656
v 0.000000 3.065250 -1.894430
vn 0.000003 1.068958 -0.660656
v 0.000000 3.065250 -1.894430
vn 0.000004 1.068959 -0.660655
v 0.000000 3.065250 -1.894430
vn 0.000000 1.068957 -0.660651
v 0.000000 3.065250 -1.894430
vn -0.495490 0.000003 -0.801717
v 0.000000 1.618030 -4.236070
vn -0.495490 0.000000 -0.801721
v 0.000000 1.618030 -4.236070
vn 0.495490 0.000000 -0.801721
v 0.000000 1.618030 -4.236070
vn 0.495490 0.000003 -0.801717
v 0.000000 1.618030 -4.236070
vn 0.000003 0.801717 -0.495490
v 0.000000 1.618030 -4.236070
vn 0.000000 -1.068957 -0.660651
v 0.000000 -3.065250 -1.894430
vn 0.000004 -1.068960 -0.660655
v 0.000000 -3.065250 -1.894430
vn 0.000003 -1.068958 -0.660656
v 0.000000 -3.065250 -1.894430
vn -0.000003 -1.068958 -0.660656
v 0.000000 -3.065250 -1.894430
vn 0.495490 -0.000003 -0.801717
v 0.000000 -1.618030 -4.236070
vn 0.495490 0.000000 -0.801721
v 0.000000 -1.618030 -4.236070
vn -0.495490 0.000000 -0.801721
v 0.000000 -1.618030 -4.236070
vn -0.495490 -0.000003 -0.801717
v 0.000000 -1.618030 -4.236070
vn -0.000003 -0.801717 -0.495490
v 0.000000 -1.618030 -4.236070
vn 0.660651 0.000000 -1.068957
v 1.894430 0.000000 -3.065250
vn 0.660655 -0.000004 -1.068959
v 1.894430 0.000000 -3.065250
vn 0.660656 -0.000003 -1.068958
v 1.894430 0.000000 -3.065250
vn 0.660656 0.000003 -1.068958
v 1.894430 0.000000 -3.065250
vn -0.660651 0.000000 -1.068957
v -1.894430 0.000000 -3.065250
vn -0.660655 0.000004 -1.068959
v -1.894430 0.000000 -3.065250
vn -0.660656 0.000003 -1.068958
v -1.894430 0.000000 -3.065250
vn -0.660656 -0.000003 -1.068958
v -1.894430 0.000000 -3.065250
# 180 vertices, 0 vertices normals


usemtl material_0
f 36//36 41//41 46//46
f 35//35 2//2 51//51
f 34//34 3//3 56//56
f 33//33 4//4 61//61
f 6//6 5//5 40//40
f 65//65 70//70 75//75
f 64//64 8//8 80//80
f 63//63 9//9 54//54
f 62//62 55//55 47//47
f 10//10 48//48 69//69
f 84//84 68//68 49//49
f 83//83 50//50 42//42
f 82//82 43//43 89//89
f 81//81 11//11 94//94
f 13//13 12//12 67//67
f 98//98 77//77 103//103
f 97//97 14//14 108//108
f 96//96 15//15 59//59
f 95//95 60//60 52//52
f 16//16 53//53 76//76
f 112//112 45//45 1//1
f 111//111 37//37 117//117
f 110//110 17//17 122//122
f 109//109 18//18 87//87
f 19//19 88//88 44//44
f 126//126 66//66 90//90
f 125//125 91//91 131//131
f 124//124 20//20 136//136
f 123//123 21//21 73//73
f 22//22 74//74 7//7
f 140//140 79//79 71//71
f 139//139 72//72 132//132
f 138//138 133//133 145//145
f 137//137 23//23 101//101
f 24//24 102//102 78//78
f 149//149 39//39 57//57
f 148//148 58//58 104//104
f 147//147 105//105 154//154
f 146//146 25//25 115//115
f 26//26 116//116 38//38
f 158//158 93//93 85//85
f 157//157 86//86 118//118
f 156//156 119//119 163//163
f 155//155 27//27 129//129
f 28//28 130//130 92//92
f 167//167 142//142 172//172
f 166//166 29//29 152//152
f 165//165 153//153 106//106
f 164//164 107//107 99//99
f 30//30 100//100 141//141
f 176//176 121//121 113//113
f 175//175 114//114 150//150
f 174//174 151//151 168//168
f 173//173 169//169 161//161
f 31//31 162//162 120//120
f 180//180 144//144 134//134
f 179//179 135//135 127//127
f 178//178 128//128 159//159
f 177//177 160//160 170//170
f 32//32 171//171 143//143
# 60 faces, 0 coords texture

# End of File